<svg xmlns="http://www.w3.org/2000/svg" xmlns:xlink="http://www.w3.org/1999/xlink" id="Calque_1" x="0px" y="0px" viewBox="0 0 320.6 231.3" style="enable-background:new 0 0 320.6 231.3;" xml:space="preserve"><style type="text/css">	.st0{fill:#FFFFFF;}	.st1{fill:none;stroke:url(#SVGID_1_);stroke-width:2.5;stroke-miterlimit:10;}	.st2{fill:url(#SVGID_00000165215336605392236940000011501412824819934623_);}	.st3{fill:url(#SVGID_00000086669635826349409910000013411873242943476654_);}	.st4{fill:#00ACC6;}	.st5{fill:url(#SVGID_00000129900847542342202560000004524584924939998615_);}	.st6{fill:url(#SVGID_00000041995310244655153070000000174541207205358473_);}	.st7{fill:url(#SVGID_00000100367815974752971570000006803814279425795500_);}	.st8{fill:url(#SVGID_00000100354654840311770090000007618810323761434274_);}	.st9{fill:url(#SVGID_00000171678163775752833000000003168759319097943427_);}	.st10{fill:url(#SVGID_00000104684206817113694020000008077275209941074590_);}	.st11{fill:url(#SVGID_00000054232547348616210480000009724619555125171114_);}	.st12{fill:url(#SVGID_00000067204455766805528350000002153447033843026093_);}	.st13{fill:url(#SVGID_00000140732495247176182520000014116531924903875999_);}</style><path class="st0" d="M52.3,150c0.5-0.1,1-0.2,1.5-0.2c0.5,0,1-0.1,1.5-0.1c0.6,0,1.2,0,1.9,0.1s1.2,0.2,1.7,0.4l0.3,0.5l-12.5,28.9 h-6.2L28,150.8c0.8-0.4,1.5-0.7,2.3-0.9c0.8-0.2,1.5-0.3,2.3-0.3c1,0,1.8,0.2,2.4,0.7c0.6,0.5,1.1,1.2,1.5,2.3l4.6,10.8 c0.5,1.1,0.9,2.4,1.4,3.8s0.9,2.7,1.3,4.1H44c0.2-0.9,0.5-1.8,0.9-2.8c0.3-1,0.7-1.9,1-2.9c0.3-0.9,0.7-1.7,0.9-2.4L52.3,150z  M40,174h7.3v17.5c-0.6,0.1-1.2,0.2-1.9,0.2c-0.7,0-1.3,0.1-1.8,0.1c-0.5,0-1.1,0-1.8-0.1s-1.3-0.1-1.9-0.2V174z"></path><path class="st0" d="M58.4,178.3v-5.1H73v-0.8c0-1.4-0.2-2.6-0.6-3.7c-0.4-1.1-1-2-1.8-2.7c-0.8-0.7-2-1-3.4-1c-2,0-3.5,0.8-4.5,2.5 c-1,1.7-1.5,4.1-1.5,7.1v2.2c0,1.8,0.2,3.5,0.5,5c0.4,1.5,1,2.7,2,3.6c1,0.9,2.4,1.3,4.3,1.3c1.6,0,3.1-0.2,4.5-0.6s2.8-1,4.1-1.6 c0.6,0.6,1.1,1.3,1.4,2.1c0.4,0.8,0.6,1.6,0.7,2.4c-1.5,1.1-3.3,1.9-5.4,2.6c-2.1,0.6-4.2,0.9-6.4,0.9c-2.5,0-4.6-0.4-6.3-1.3 s-3-2.1-4-3.6s-1.7-3.3-2.1-5.2c-0.4-1.9-0.6-4-0.6-6.1c0-3.1,0.5-5.9,1.4-8.4s2.4-4.4,4.4-5.9s4.4-2.1,7.4-2.1c2.7,0,5,0.6,6.9,1.8 c1.9,1.2,3.3,2.8,4.2,4.8s1.4,4.3,1.4,6.7c0,1.1,0,2-0.1,2.8c-0.1,0.8-0.2,1.6-0.4,2.5L58.4,178.3L58.4,178.3z"></path><path class="st0" d="M95.2,186.7c0.2,0.5,0.3,1,0.4,1.6c0.1,0.6,0.2,1.1,0.2,1.7c0,0.2,0,0.5,0,0.7c0,0.2-0.1,0.5-0.2,0.7 c-0.8,0.1-1.6,0.2-2.7,0.3c-1,0.1-2,0.1-2.9,0.1c-2.2,0-3.8-0.5-4.9-1.6c-1.1-1-1.6-2.6-1.6-4.7v-35.6l0.4-0.4h2.7 c1.5,0,2.5,0.3,3,1s0.8,1.7,0.8,3.1v30.6c0,1.7,0.8,2.5,2.5,2.5H95.2z"></path><path class="st0" d="M111.1,186.7c0.2,0.5,0.3,1,0.4,1.6c0.1,0.6,0.2,1.1,0.2,1.7c0,0.2,0,0.5,0,0.7c0,0.2-0.1,0.5-0.2,0.7 c-0.8,0.1-1.6,0.2-2.7,0.3c-1,0.1-2,0.1-2.9,0.1c-2.2,0-3.8-0.5-4.9-1.6c-1.1-1-1.6-2.6-1.6-4.7v-35.6l0.4-0.4h2.7 c1.5,0,2.5,0.3,3,1s0.8,1.7,0.8,3.1v30.6c0,1.7,0.8,2.5,2.5,2.5H111.1z"></path><path class="st0" d="M140,176.1c0,3.2-0.5,6.1-1.6,8.5c-1,2.5-2.6,4.4-4.6,5.8c-2,1.4-4.6,2.1-7.6,2.1c-3,0-5.5-0.7-7.6-2.1 c-2-1.4-3.6-3.3-4.6-5.8c-1-2.4-1.5-5.3-1.5-8.5c0-3.2,0.5-6.1,1.6-8.5c1-2.4,2.6-4.4,4.6-5.7c2-1.4,4.5-2.1,7.5-2.1 c3,0,5.6,0.7,7.6,2.1s3.6,3.3,4.6,5.7C139.5,170,140,172.8,140,176.1z M119.9,176.1c0,1.9,0.2,3.7,0.5,5.3s1,3,1.9,4 c0.9,1,2.2,1.6,3.9,1.6s3-0.5,3.9-1.6s1.6-2.4,1.9-4c0.4-1.7,0.5-3.4,0.5-5.3s-0.2-3.7-0.5-5.3s-1-3-1.9-4.1c-0.9-1-2.2-1.6-3.9-1.6 s-3,0.5-3.9,1.6s-1.6,2.4-1.9,4.1S119.9,174.1,119.9,176.1z"></path><path class="st0" d="M140.1,161c0.8-0.3,1.5-0.6,2.2-0.7s1.3-0.2,1.9-0.2c1,0,1.8,0.2,2.3,0.7c0.5,0.5,0.9,1.2,1.1,2.2l2.7,12.4 c0.4,2,0.8,3.9,1.2,5.7c0.4,1.9,0.6,3.4,0.8,4.5c0.1,0.4,0.2,0.5,0.5,0.5l4.9-25.5c0.6-0.1,1.3-0.2,2.2-0.3c0.9-0.1,1.6-0.1,2-0.1 c0.5,0,1.2,0,2.1,0.1c0.9,0.1,1.6,0.1,2.1,0.3l4.8,24.9c0.1,0.4,0.2,0.5,0.5,0.5c0.4-1.7,0.7-3.5,1-5.3c0.3-1.8,0.7-3.6,1.1-5.5 l3.3-14.9c0.4-0.1,0.9-0.2,1.4-0.2c0.5,0,1.1-0.1,1.6-0.1c0.5,0,1.2,0,1.9,0.1s1.3,0.2,1.8,0.4l0.2,0.4l-7.6,30.4 c-0.7,0.1-1.6,0.2-2.6,0.2c-1,0-1.9,0.1-2.8,0.1c-1.4,0-2.4-0.2-3.2-0.6c-0.8-0.4-1.3-1.4-1.6-3.1l-1.7-8.3 c-0.2-1.1-0.4-2.4-0.7-3.8s-0.5-2.9-0.8-4.4s-0.5-3.1-0.8-4.6h-0.3c-0.2,1.5-0.5,3-0.8,4.5s-0.6,3-0.8,4.4s-0.5,2.7-0.8,3.8 l-2.4,11.7c-0.8,0.1-1.6,0.2-2.7,0.2c-1.1,0.1-2,0.1-2.9,0.1c-1.2,0-2.2-0.2-3-0.7s-1.4-1.5-1.7-3.1L140.1,161z"></path><path class="st0" d="M186.5,149.8c2.3,0,4.6-0.1,6.8-0.1s4.4-0.1,6.5-0.1c3.1,0,5.6,0.4,7.6,1.3c2.1,0.9,3.6,2.1,4.6,3.8 c1,1.6,1.6,3.7,1.6,6c0,1.5-0.4,3-1.1,4.3s-1.6,2.4-2.9,3.3s-2.6,1.4-4.2,1.5v-0.9c1.7,0,3.3,0.6,4.9,1.6c1.6,1,2.8,2.3,3.8,4 s1.4,3.5,1.4,5.5c0,2.4-0.5,4.5-1.6,6.3c-1.1,1.8-2.7,3.2-5,4.2c-2.2,1-5,1.5-8.5,1.5c-2.5,0-4.9,0-7.1-0.1c-0.2,0-0.4,0-0.6,0 c-3.7-0.1-6.6-3-6.7-6.6C186.1,173.5,186.5,149.8,186.5,149.8z M193.3,183.2c0,2,1.6,3.6,3.7,3.5h0c1.2,0,2.4,0,3.4,0 c2.1,0,3.8-0.4,4.9-1.1s1.9-1.7,2.3-2.8c0.4-1.1,0.6-2.1,0.6-3.1s-0.2-2.1-0.7-3.2c-0.5-1.1-1.3-2.1-2.5-2.8c-1.2-0.8-2.8-1.2-5-1.2 h-6.9c-1.5,0-2.8-1.2-2.8-2.7l0,0c0-1.5,1.2-2.7,2.8-2.7h6.2c1.9,0,3.3-0.3,4.3-0.9s1.7-1.4,2-2.3c0.4-0.9,0.6-1.9,0.6-2.8 c0-1-0.2-1.9-0.5-2.8s-1-1.7-2-2.3c-1-0.6-2.4-0.9-4.2-0.9c-0.8,0-1.8,0-3,0c-1.2,0-2.3,0-3.2-0.1L193.3,183.2z"></path><path class="st0" d="M245.5,176.1c0,3.2-0.5,6.1-1.6,8.5c-1,2.5-2.6,4.4-4.6,5.8c-2,1.4-4.6,2.1-7.6,2.1c-3,0-5.5-0.7-7.6-2.1 c-2-1.4-3.6-3.3-4.6-5.8c-1-2.4-1.5-5.3-1.5-8.5c0-3.2,0.5-6.1,1.6-8.5s2.6-4.4,4.6-5.7c2-1.4,4.5-2.1,7.5-2.1c3,0,5.6,0.7,7.6,2.1 s3.6,3.3,4.6,5.7C244.9,170,245.5,172.8,245.5,176.1z M225.4,176.1c0,1.9,0.2,3.7,0.5,5.3s1,3,1.9,4c0.9,1,2.2,1.6,3.9,1.6 c1.7,0,3-0.5,3.9-1.6s1.6-2.4,1.9-4c0.4-1.7,0.5-3.4,0.5-5.3s-0.2-3.7-0.5-5.3s-1-3-1.9-4.1c-0.9-1-2.2-1.6-3.9-1.6s-3,0.5-3.9,1.6 s-1.6,2.4-1.9,4.1S225.4,174.1,225.4,176.1z"></path><path class="st0" d="M264.5,160.6c0.4-0.1,0.8-0.2,1.3-0.2s1-0.1,1.5-0.1c0.7,0,1.4,0.1,2,0.1c0.6,0.1,1.1,0.2,1.6,0.4l0.2,0.5 l-10,15.5l-1.9,1.9l-7.9,12.9c-0.3,0.1-0.8,0.2-1.3,0.2s-1.1,0.1-1.6,0.1c-0.7,0-1.4-0.1-2-0.1s-1.2-0.2-1.7-0.4l-0.2-0.5l10.9-17 l2-2L264.5,160.6z M245.4,161.7c0.7-0.5,1.5-0.9,2.4-1.2s1.7-0.4,2.5-0.4c0.9,0,1.6,0.2,2.1,0.6c0.5,0.4,1,0.9,1.5,1.6l18.4,28.2 c-0.7,0.5-1.5,0.9-2.3,1.2c-0.9,0.3-1.7,0.5-2.5,0.5c-0.9,0-1.6-0.2-2.2-0.6s-1.1-0.9-1.5-1.6L245.4,161.7z"></path><g>			<linearGradient id="SVGID_1_" gradientUnits="userSpaceOnUse" x1="95.64" y1="140.605" x2="207.54" y2="140.605" gradientTransform="matrix(1 0 0 -1 0 232)">		<stop offset="0" style="stop-color:#F6B100"></stop>		<stop offset="1" style="stop-color:#FDCC00"></stop>	</linearGradient>	<path class="st1" d="M206.2,118.2c0,15.4-12.6,27.9-27.9,27.9l-53.5,0c-15.3,0-27.9-12.6-27.9-27.9l0.1-53.5  c0-15.3,12.6-27.9,27.9-27.9l53.5,0c15.4,0,27.9,12.6,27.9,27.9L206.2,118.2z"></path>			<linearGradient id="SVGID_00000121259223921185670910000004700101507951660935_" gradientUnits="userSpaceOnUse" x1="153.9" y1="171.5468" x2="175.4481" y2="171.5468" gradientTransform="matrix(1 0 0 -1 0 232)">		<stop offset="0" style="stop-color:#F6B100"></stop>		<stop offset="1" style="stop-color:#FDCC00"></stop>	</linearGradient>	<path style="fill:url(#SVGID_00000121259223921185670910000004700101507951660935_);" d="M153.9,76.1c0,4.2,1.7,4.6,3.8,1L174.6,48  c2.1-3.6,0.4-6.6-3.8-6.6l-9.3-0.1c-4.2,0-7.6,3.4-7.6,7.5L153.9,76.1z"></path>			<linearGradient id="SVGID_00000047743868521927860870000003999316510308997771_" gradientUnits="userSpaceOnUse" x1="128.6539" y1="171.5576" x2="150.18" y2="171.5576" gradientTransform="matrix(1 0 0 -1 0 232)">		<stop offset="0" style="stop-color:#F6B100"></stop>		<stop offset="1" style="stop-color:#FDCC00"></stop>	</linearGradient>	<path style="fill:url(#SVGID_00000047743868521927860870000003999316510308997771_);" d="M146.4,77.1c2.1,3.6,3.8,3.2,3.8-1l0-27.3  c0-4.2-3.4-7.6-7.6-7.6l-9.3,0c-4.2,0-5.9,3-3.8,6.6L146.4,77.1z"></path>	<path class="st4" d="M140.4,81.8c3.6,2.1,4.9,0.8,2.8-2.8l-17.5-30.4c-2.1-3.6-6.7-4.8-10.3-2.8l-8.1,8c-2.1,3.6-0.9,8.2,2.7,10.3  L140.4,81.8z"></path>			<linearGradient id="SVGID_00000098914404866662884530000003005958093257228478_" gradientUnits="userSpaceOnUse" x1="163.1052" y1="153.938" x2="201.37" y2="153.938" gradientTransform="matrix(1 0 0 -1 0 232)">		<stop offset="0" style="stop-color:#F6B100"></stop>		<stop offset="1" style="stop-color:#FDCC00"></stop>	</linearGradient>	<path style="fill:url(#SVGID_00000098914404866662884530000003005958093257228478_);" d="M201.3,72c0-4.2-3-5.9-6.6-3.8L165.5,85  c-3.6,2.1-3.1,3.8,1,3.8l27.3,0c4.2,0,7.6-3.4,7.6-7.6L201.3,72z"></path>			<linearGradient id="SVGID_00000157998769105140638250000014810120447115604902_" gradientUnits="userSpaceOnUse" x1="159.9113" y1="168.171" x2="197.8857" y2="168.171" gradientTransform="matrix(1 0 0 -1 0 232)">		<stop offset="0" style="stop-color:#F6B100"></stop>		<stop offset="1" style="stop-color:#FDCC00"></stop>	</linearGradient>	<path style="fill:url(#SVGID_00000157998769105140638250000014810120447115604902_);" d="M160.9,79c-2.1,3.6-0.8,4.8,2.8,2.8  l30.4-17.5c3.6-2.1,4.9-6.7,2.8-10.3l-8-8.1c-3.6-2.1-8.2-0.9-10.3,2.7L160.9,79z"></path>			<linearGradient id="SVGID_00000152259702471310708060000002379019018721456529_" gradientUnits="userSpaceOnUse" x1="163.1136" y1="128.6759" x2="201.36" y2="128.6759" gradientTransform="matrix(1 0 0 -1 0 232)">		<stop offset="0" style="stop-color:#F6B100"></stop>		<stop offset="1" style="stop-color:#FDCC00"></stop>	</linearGradient>	<path style="fill:url(#SVGID_00000152259702471310708060000002379019018721456529_);" d="M166.6,92.6c-4.2,0-4.6,1.7-1,3.8  l29.2,16.9c3.6,2.1,6.6,0.4,6.6-3.8l0.1-9.3c0-4.2-3.4-7.6-7.6-7.6L166.6,92.6z"></path>			<linearGradient id="SVGID_00000052085414068455219280000017853341052466456743_" gradientUnits="userSpaceOnUse" x1="153.86" y1="111.1124" x2="175.3861" y2="111.1124" gradientTransform="matrix(1 0 0 -1 0 232)">		<stop offset="0" style="stop-color:#F6B100"></stop>		<stop offset="1" style="stop-color:#FDCC00"></stop>	</linearGradient>	<path style="fill:url(#SVGID_00000052085414068455219280000017853341052466456743_);" d="M157.7,104.2c-2.1-3.6-3.8-3.2-3.8,1  l0,27.3c0,4.2,3.4,7.6,7.6,7.6l9.3-0.1c4.2,0,5.9-3,3.8-6.6L157.7,104.2z"></path>			<linearGradient id="SVGID_00000057131864146046583690000010593692158232121476_" gradientUnits="userSpaceOnUse" x1="159.8934" y1="114.4615" x2="197.8286" y2="114.4615" gradientTransform="matrix(1 0 0 -1 0 232)">		<stop offset="0" style="stop-color:#F6B100"></stop>		<stop offset="1" style="stop-color:#FDCC00"></stop>	</linearGradient>	<path style="fill:url(#SVGID_00000057131864146046583690000010593692158232121476_);" d="M163.7,99.6c-3.6-2.1-4.9-0.8-2.8,2.8  l17.5,30.4c2.1,3.6,6.7,4.9,10.3,2.8l8.1-8c2.1-3.6,0.9-8.2-2.7-10.3L163.7,99.6z"></path>			<linearGradient id="SVGID_00000084507588057946110480000017044032262612543370_" gradientUnits="userSpaceOnUse" x1="128.3962" y1="111.7015" x2="150.55" y2="111.7015" gradientTransform="matrix(1 0 0 -1 0 232)">		<stop offset="0" style="stop-color:#F6B100"></stop>		<stop offset="1" style="stop-color:#FDCC00"></stop>	</linearGradient>	<path style="fill:url(#SVGID_00000084507588057946110480000017044032262612543370_);" d="M150.6,104.2c0-4.3-1.8-4.8-3.9-1  l-17.4,30c-2.1,3.7-0.4,6.8,3.9,6.8l9.6,0.1c4.3,0,7.8-3.5,7.8-7.8L150.6,104.2z"></path>			<linearGradient id="SVGID_00000143589301148268208500000011574663927219943868_" gradientUnits="userSpaceOnUse" x1="101.77" y1="155.7719" x2="141.083" y2="155.7719" gradientTransform="matrix(1 0 0 -1 0 232)">		<stop offset="0" style="stop-color:#F6B100"></stop>		<stop offset="1" style="stop-color:#FDCC00"></stop>	</linearGradient>	<path style="fill:url(#SVGID_00000143589301148268208500000011574663927219943868_);" d="M108.6,66.1c-3.7-2.1-6.8-0.4-6.8,3.9  l-0.1,9.6c0,4.3,3.5,7.8,7.8,7.8l28,0c4.3,0,4.8-1.8,1-3.9L108.6,66.1z"></path>			<linearGradient id="SVGID_00000127020436113830373930000015647397484133788547_" gradientUnits="userSpaceOnUse" x1="105.3528" y1="115.1768" x2="144.3772" y2="115.1768" gradientTransform="matrix(1 0 0 -1 0 232)">		<stop offset="0" style="stop-color:#F6B100"></stop>		<stop offset="1" style="stop-color:#FDCC00"></stop>	</linearGradient>	<path style="fill:url(#SVGID_00000127020436113830373930000015647397484133788547_);" d="M143.3,101.2c2.1-3.7,0.9-5-2.8-2.8  l-31.3,18c-3.7,2.1-5,6.9-2.8,10.6l8.3,8.3c3.7,2.1,8.5,0.9,10.6-2.8L143.3,101.2z"></path>			<linearGradient id="SVGID_00000105422525816191208810000011752138741370373521_" gradientUnits="userSpaceOnUse" x1="101.76" y1="129.8182" x2="141.093" y2="129.8182" gradientTransform="matrix(1 0 0 -1 0 232)">		<stop offset="0" style="stop-color:#F6B100"></stop>		<stop offset="1" style="stop-color:#FDCC00"></stop>	</linearGradient>	<path style="fill:url(#SVGID_00000105422525816191208810000011752138741370373521_);" d="M109.5,91.1c-4.3,0-7.8,3.5-7.8,7.8  l0.1,9.6c0,4.3,3.1,6,6.8,3.9l30-17.3c3.7-2.1,3.2-3.9-1-3.9L109.5,91.1z"></path></g><g>	<path class="st0" d="M258.8,153.4c0-0.3,0.1-0.5,0.2-0.8c0.1-0.3,0.3-0.5,0.5-0.6c0.4,0.2,0.8,0.5,1.3,0.6c0.5,0.2,1,0.3,1.5,0.3  c0.5,0,0.8-0.1,1.1-0.3s0.4-0.5,0.4-0.8c0-0.2-0.1-0.5-0.2-0.7c-0.2-0.2-0.4-0.4-0.8-0.6l-1.7-0.7c-0.6-0.2-1-0.6-1.4-1  s-0.5-0.9-0.5-1.5c0-0.5,0.1-1,0.4-1.4s0.7-0.8,1.2-1s1-0.4,1.7-0.4c0.6,0,1.2,0.1,1.8,0.2c0.5,0.2,1,0.3,1.4,0.5  c0,0.3-0.1,0.5-0.2,0.8c-0.1,0.2-0.3,0.5-0.5,0.6c-0.4-0.2-0.8-0.3-1.2-0.5c-0.5-0.1-0.9-0.2-1.2-0.2c-0.5,0-0.8,0.1-1,0.3  c-0.2,0.2-0.3,0.5-0.3,0.7c0,0.2,0.1,0.4,0.2,0.6c0.2,0.2,0.4,0.3,0.7,0.4l1.7,0.7c0.4,0.2,0.8,0.4,1.1,0.6s0.6,0.6,0.7,0.9  s0.3,0.7,0.3,1.1c0,0.6-0.1,1-0.4,1.5s-0.6,0.8-1.2,1c-0.5,0.2-1.2,0.4-2,0.4c-0.6,0-1.2-0.1-1.8-0.3  C259.9,154,259.3,153.8,258.8,153.4z"></path>	<path class="st0" d="M266.1,146.3c0-0.1,0-0.3-0.1-0.4s0-0.2,0-0.4s0-0.2,0-0.4s0-0.3,0.1-0.4h6.6c0,0.1,0.1,0.2,0.1,0.4  c0,0.1,0,0.2,0,0.4c0,0.3-0.1,0.5-0.2,0.6c-0.2,0.1-0.4,0.2-0.8,0.2h-0.6c-0.1,0-0.2,0-0.4,0c-0.2,0-0.3,0-0.4,0h-1.9  c-0.1,0-0.2,0-0.4,0c-0.2,0-0.3,0-0.4,0L266.1,146.3L266.1,146.3z M268.5,147.4c0-0.2,0-0.4,0-0.5s0-0.3,0-0.5v-0.8h1.9v0.8  c0,0.2,0,0.4,0,0.5c0,0.1,0,0.3,0,0.5v6.9c-0.2,0-0.3,0.1-0.5,0.1c-0.2,0-0.3,0-0.4,0c-0.1,0-0.3,0-0.5,0c-0.2,0-0.3,0-0.5-0.1  L268.5,147.4L268.5,147.4z"></path>	<path class="st0" d="M273.1,149.5c0-1,0.1-1.8,0.4-2.6c0.3-0.7,0.7-1.3,1.3-1.7c0.6-0.4,1.4-0.6,2.2-0.6c0.9,0,1.7,0.2,2.3,0.6  c0.6,0.4,1,1,1.3,1.8s0.4,1.6,0.4,2.6c0,1-0.1,1.8-0.4,2.6c-0.3,0.7-0.7,1.3-1.3,1.8s-1.3,0.6-2.2,0.6s-1.7-0.2-2.3-0.6  s-1-1-1.3-1.8C273.3,151.3,273.1,150.5,273.1,149.5z M275.1,149.5c0,0.4,0,0.8,0.1,1.2s0.1,0.8,0.3,1.1s0.4,0.6,0.6,0.8  c0.3,0.2,0.6,0.3,1.1,0.3s0.8-0.1,1.1-0.3c0.3-0.2,0.5-0.5,0.6-0.8c0.1-0.4,0.2-0.7,0.3-1.1c0-0.4,0.1-0.8,0.1-1.2s0-0.8-0.1-1.2  c0-0.4-0.1-0.8-0.3-1.1c-0.1-0.4-0.4-0.6-0.6-0.8c-0.3-0.2-0.6-0.3-1.1-0.3s-0.8,0.1-1.1,0.3c-0.3,0.2-0.5,0.5-0.6,0.8  c-0.1,0.3-0.2,0.7-0.3,1.1C275.1,148.7,275.1,149.1,275.1,149.5z"></path>	<path class="st0" d="M289.4,147.7c0,0.4-0.1,0.8-0.2,1.2c-0.2,0.3-0.4,0.6-0.6,0.9s-0.5,0.4-0.8,0.5c0.2,0.1,0.5,0.2,0.6,0.5  c0.2,0.2,0.3,0.5,0.4,0.8l0.5,1.4c0.1,0.2,0.2,0.4,0.3,0.6c0.1,0.2,0.2,0.3,0.4,0.4c-0.1,0.2-0.3,0.3-0.5,0.4  c-0.2,0.1-0.5,0.2-0.7,0.2c-0.3,0-0.6-0.1-0.7-0.3c-0.2-0.2-0.3-0.5-0.4-0.8l-0.6-1.6c-0.1-0.3-0.2-0.5-0.4-0.7  c-0.2-0.2-0.5-0.3-0.9-0.3H284v-1.4c0.2,0,0.4,0,0.7,0c0.3,0,0.5,0,0.8,0s0.4,0,0.6,0c0.4,0,0.7-0.1,0.9-0.2  c0.2-0.1,0.4-0.3,0.4-0.6c0.1-0.2,0.1-0.5,0.1-0.7c0-0.3,0-0.5-0.1-0.7c-0.1-0.2-0.2-0.4-0.4-0.6c-0.2-0.1-0.5-0.2-0.9-0.2  c-0.2,0-0.4,0-0.6,0s-0.5,0-0.7,0v8.1c-0.1,0-0.3,0.1-0.5,0.1s-0.3,0-0.5,0c-0.1,0-0.3,0-0.4,0s-0.3,0-0.5-0.1v-9.4l0.1-0.1  c0.6,0,1.1,0,1.6,0c0.5,0,1,0,1.5,0c0.6,0,1.2,0.1,1.7,0.3c0.5,0.2,0.9,0.5,1.1,1C289.3,146.4,289.4,147,289.4,147.7z"></path>	<path class="st0" d="M291.3,144.9L291.3,144.9l1.8-0.1v1.5c0,0.2,0,0.4,0,0.5c0,0.1,0,0.3,0,0.5v4.6c0,0.1,0,0.3,0,0.4  c0,0.1,0,0.3,0,0.4v1.6h-0.8c-0.3,0-0.6-0.1-0.8-0.3s-0.3-0.5-0.3-0.8L291.3,144.9L291.3,144.9z M297.2,144.8c0,0.1,0,0.3,0,0.4  c0,0.1,0,0.2,0,0.3c0,0.1,0,0.2,0,0.4c0,0.1-0.1,0.3-0.1,0.4h-3.1c-0.1,0-0.3,0-0.5,0s-0.4,0-0.6,0c-0.2,0-0.4,0-0.5,0v-1.5  L297.2,144.8L297.2,144.8z M296.4,148.7c0,0.1,0.1,0.2,0.1,0.4c0,0.1,0,0.3,0,0.4c0,0.1,0,0.2,0,0.4c0,0.1,0,0.3-0.1,0.4h-2.4  c-0.1,0-0.3,0-0.5,0s-0.4,0-0.6,0c-0.2,0-0.4,0-0.5,0v-1.5c0.1,0,0.3,0,0.5,0c0.2,0,0.4,0,0.6,0c0.2,0,0.3,0,0.5,0L296.4,148.7  L296.4,148.7z M297.5,152.7c0,0.5-0.1,0.9-0.2,1.2c-0.2,0.3-0.5,0.4-1,0.4h-3.8v-1.5c0.3,0,0.5,0,0.8,0s0.5,0,0.8,0H297.5z"></path></g></svg>