<?xml version="1.0" encoding="UTF-8" standalone="no"?>
<svg
   id="Calque_1"
   x="0px"
   y="0px"
   viewBox="0 0 111.9 111.8"
   xml:space="preserve"
   version="1.1"
   sodipodi:docname="corpo_logo.svg"
   width="111.9"
   height="111.8"
   inkscape:version="1.2.1 (9c6d41e410, 2022-07-14)"
   xmlns:inkscape="http://www.inkscape.org/namespaces/inkscape"
   xmlns:sodipodi="http://sodipodi.sourceforge.net/DTD/sodipodi-0.dtd"
   xmlns="http://www.w3.org/2000/svg"
   xmlns:svg="http://www.w3.org/2000/svg"><defs
     id="defs250" /><sodipodi:namedview
     id="namedview248"
     pagecolor="#ffffff"
     bordercolor="#000000"
     borderopacity="0.25"
     inkscape:showpageshadow="2"
     inkscape:pageopacity="0.0"
     inkscape:pagecheckerboard="0"
     inkscape:deskcolor="#d1d1d1"
     showgrid="false"
     inkscape:zoom="3.4068309"
     inkscape:cx="-1.4676396"
     inkscape:cy="70.740229"
     inkscape:window-width="2787"
     inkscape:window-height="1586"
     inkscape:window-x="2869"
     inkscape:window-y="-11"
     inkscape:window-maximized="1"
     inkscape:current-layer="Calque_1" /><style
     type="text/css"
     id="style127">	.st0{fill:#FFFFFF;}	.st1{fill:none;stroke:url(#SVGID_1_);stroke-width:2.5;stroke-miterlimit:10;}	.st2{fill:url(#SVGID_00000165215336605392236940000011501412824819934623_);}	.st3{fill:url(#SVGID_00000086669635826349409910000013411873242943476654_);}	.st4{fill:#00ACC6;}	.st5{fill:url(#SVGID_00000129900847542342202560000004524584924939998615_);}	.st6{fill:url(#SVGID_00000041995310244655153070000000174541207205358473_);}	.st7{fill:url(#SVGID_00000100367815974752971570000006803814279425795500_);}	.st8{fill:url(#SVGID_00000100354654840311770090000007618810323761434274_);}	.st9{fill:url(#SVGID_00000171678163775752833000000003168759319097943427_);}	.st10{fill:url(#SVGID_00000104684206817113694020000008077275209941074590_);}	.st11{fill:url(#SVGID_00000054232547348616210480000009724619555125171114_);}	.st12{fill:url(#SVGID_00000067204455766805528350000002153447033843026093_);}	.st13{fill:url(#SVGID_00000140732495247176182520000014116531924903875999_);}</style><g
     id="g233"
     transform="translate(-95.65,-35.55)">			<linearGradient
   id="SVGID_1_"
   gradientUnits="userSpaceOnUse"
   x1="95.639999"
   y1="140.605"
   x2="207.53999"
   y2="140.605"
   gradientTransform="matrix(1,0,0,-1,0,232)">		<stop
   offset="0"
   style="stop-color:#F6B100"
   id="stop147" />		<stop
   offset="1"
   style="stop-color:#FDCC00"
   id="stop149" />	</linearGradient>	<path
   class="st1"
   d="m 206.2,118.2 c 0,15.4 -12.6,27.9 -27.9,27.9 h -53.5 c -15.3,0 -27.9,-12.6 -27.9,-27.9 L 97,64.7 c 0,-15.3 12.6,-27.9 27.9,-27.9 h 53.5 c 15.4,0 27.9,12.6 27.9,27.9 z"
   id="path152"
   style="stroke:url(#SVGID_1_)" />			<linearGradient
   id="SVGID_00000121259223921185670910000004700101507951660935_"
   gradientUnits="userSpaceOnUse"
   x1="153.89999"
   y1="171.5468"
   x2="175.4481"
   y2="171.5468"
   gradientTransform="matrix(1,0,0,-1,0,232)">		<stop
   offset="0"
   style="stop-color:#F6B100"
   id="stop154" />		<stop
   offset="1"
   style="stop-color:#FDCC00"
   id="stop156" />	</linearGradient>	<path
   style="fill:url(#SVGID_00000121259223921185670910000004700101507951660935_)"
   d="m 153.9,76.1 c 0,4.2 1.7,4.6 3.8,1 L 174.6,48 c 2.1,-3.6 0.4,-6.6 -3.8,-6.6 l -9.3,-0.1 c -4.2,0 -7.6,3.4 -7.6,7.5 z"
   id="path159" />			<linearGradient
   id="SVGID_00000047743868521927860870000003999316510308997771_"
   gradientUnits="userSpaceOnUse"
   x1="128.6539"
   y1="171.5576"
   x2="150.17999"
   y2="171.5576"
   gradientTransform="matrix(1,0,0,-1,0,232)">		<stop
   offset="0"
   style="stop-color:#F6B100"
   id="stop161" />		<stop
   offset="1"
   style="stop-color:#FDCC00"
   id="stop163" />	</linearGradient>	<path
   style="fill:url(#SVGID_00000047743868521927860870000003999316510308997771_)"
   d="m 146.4,77.1 c 2.1,3.6 3.8,3.2 3.8,-1 V 48.8 c 0,-4.2 -3.4,-7.6 -7.6,-7.6 h -9.3 c -4.2,0 -5.9,3 -3.8,6.6 z"
   id="path166" />	<path
   class="st4"
   d="m 140.4,81.8 c 3.6,2.1 4.9,0.8 2.8,-2.8 L 125.7,48.6 C 123.6,45 119,43.8 115.4,45.8 l -8.1,8 c -2.1,3.6 -0.9,8.2 2.7,10.3 z"
   id="path168" />			<linearGradient
   id="SVGID_00000098914404866662884530000003005958093257228478_"
   gradientUnits="userSpaceOnUse"
   x1="163.10519"
   y1="153.938"
   x2="201.37"
   y2="153.938"
   gradientTransform="matrix(1,0,0,-1,0,232)">		<stop
   offset="0"
   style="stop-color:#F6B100"
   id="stop170" />		<stop
   offset="1"
   style="stop-color:#FDCC00"
   id="stop172" />	</linearGradient>	<path
   style="fill:url(#SVGID_00000098914404866662884530000003005958093257228478_)"
   d="m 201.3,72 c 0,-4.2 -3,-5.9 -6.6,-3.8 L 165.5,85 c -3.6,2.1 -3.1,3.8 1,3.8 h 27.3 c 4.2,0 7.6,-3.4 7.6,-7.6 z"
   id="path175" />			<linearGradient
   id="SVGID_00000157998769105140638250000014810120447115604902_"
   gradientUnits="userSpaceOnUse"
   x1="159.9113"
   y1="168.17101"
   x2="197.8857"
   y2="168.17101"
   gradientTransform="matrix(1,0,0,-1,0,232)">		<stop
   offset="0"
   style="stop-color:#F6B100"
   id="stop177" />		<stop
   offset="1"
   style="stop-color:#FDCC00"
   id="stop179" />	</linearGradient>	<path
   style="fill:url(#SVGID_00000157998769105140638250000014810120447115604902_)"
   d="m 160.9,79 c -2.1,3.6 -0.8,4.8 2.8,2.8 l 30.4,-17.5 c 3.6,-2.1 4.9,-6.7 2.8,-10.3 l -8,-8.1 c -3.6,-2.1 -8.2,-0.9 -10.3,2.7 z"
   id="path182" />			<linearGradient
   id="SVGID_00000152259702471310708060000002379019018721456529_"
   gradientUnits="userSpaceOnUse"
   x1="163.1136"
   y1="128.6759"
   x2="201.36"
   y2="128.6759"
   gradientTransform="matrix(1,0,0,-1,0,232)">		<stop
   offset="0"
   style="stop-color:#F6B100"
   id="stop184" />		<stop
   offset="1"
   style="stop-color:#FDCC00"
   id="stop186" />	</linearGradient>	<path
   style="fill:url(#SVGID_00000152259702471310708060000002379019018721456529_)"
   d="m 166.6,92.6 c -4.2,0 -4.6,1.7 -1,3.8 l 29.2,16.9 c 3.6,2.1 6.6,0.4 6.6,-3.8 l 0.1,-9.3 c 0,-4.2 -3.4,-7.6 -7.6,-7.6 z"
   id="path189" />			<linearGradient
   id="SVGID_00000052085414068455219280000017853341052466456743_"
   gradientUnits="userSpaceOnUse"
   x1="153.86"
   y1="111.1124"
   x2="175.38609"
   y2="111.1124"
   gradientTransform="matrix(1,0,0,-1,0,232)">		<stop
   offset="0"
   style="stop-color:#F6B100"
   id="stop191" />		<stop
   offset="1"
   style="stop-color:#FDCC00"
   id="stop193" />	</linearGradient>	<path
   style="fill:url(#SVGID_00000052085414068455219280000017853341052466456743_)"
   d="m 157.7,104.2 c -2.1,-3.6 -3.8,-3.2 -3.8,1 v 27.3 c 0,4.2 3.4,7.6 7.6,7.6 l 9.3,-0.1 c 4.2,0 5.9,-3 3.8,-6.6 z"
   id="path196" />			<linearGradient
   id="SVGID_00000057131864146046583690000010593692158232121476_"
   gradientUnits="userSpaceOnUse"
   x1="159.8934"
   y1="114.4615"
   x2="197.8286"
   y2="114.4615"
   gradientTransform="matrix(1,0,0,-1,0,232)">		<stop
   offset="0"
   style="stop-color:#F6B100"
   id="stop198" />		<stop
   offset="1"
   style="stop-color:#FDCC00"
   id="stop200" />	</linearGradient>	<path
   style="fill:url(#SVGID_00000057131864146046583690000010593692158232121476_)"
   d="m 163.7,99.6 c -3.6,-2.1 -4.9,-0.8 -2.8,2.8 l 17.5,30.4 c 2.1,3.6 6.7,4.9 10.3,2.8 l 8.1,-8 c 2.1,-3.6 0.9,-8.2 -2.7,-10.3 z"
   id="path203" />			<linearGradient
   id="SVGID_00000084507588057946110480000017044032262612543370_"
   gradientUnits="userSpaceOnUse"
   x1="128.39619"
   y1="111.7015"
   x2="150.55"
   y2="111.7015"
   gradientTransform="matrix(1,0,0,-1,0,232)">		<stop
   offset="0"
   style="stop-color:#F6B100"
   id="stop205" />		<stop
   offset="1"
   style="stop-color:#FDCC00"
   id="stop207" />	</linearGradient>	<path
   style="fill:url(#SVGID_00000084507588057946110480000017044032262612543370_)"
   d="m 150.6,104.2 c 0,-4.3 -1.8,-4.8 -3.9,-1 l -17.4,30 c -2.1,3.7 -0.4,6.8 3.9,6.8 l 9.6,0.1 c 4.3,0 7.8,-3.5 7.8,-7.8 z"
   id="path210" />			<linearGradient
   id="SVGID_00000143589301148268208500000011574663927219943868_"
   gradientUnits="userSpaceOnUse"
   x1="101.77"
   y1="155.7719"
   x2="141.08299"
   y2="155.7719"
   gradientTransform="matrix(1,0,0,-1,0,232)">		<stop
   offset="0"
   style="stop-color:#F6B100"
   id="stop212" />		<stop
   offset="1"
   style="stop-color:#FDCC00"
   id="stop214" />	</linearGradient>	<path
   style="fill:url(#SVGID_00000143589301148268208500000011574663927219943868_)"
   d="m 108.6,66.1 c -3.7,-2.1 -6.8,-0.4 -6.8,3.9 l -0.1,9.6 c 0,4.3 3.5,7.8 7.8,7.8 h 28 c 4.3,0 4.8,-1.8 1,-3.9 z"
   id="path217" />			<linearGradient
   id="SVGID_00000127020436113830373930000015647397484133788547_"
   gradientUnits="userSpaceOnUse"
   x1="105.3528"
   y1="115.1768"
   x2="144.3772"
   y2="115.1768"
   gradientTransform="matrix(1,0,0,-1,0,232)">		<stop
   offset="0"
   style="stop-color:#F6B100"
   id="stop219" />		<stop
   offset="1"
   style="stop-color:#FDCC00"
   id="stop221" />	</linearGradient>	<path
   style="fill:url(#SVGID_00000127020436113830373930000015647397484133788547_)"
   d="m 143.3,101.2 c 2.1,-3.7 0.9,-5 -2.8,-2.8 l -31.3,18 c -3.7,2.1 -5,6.9 -2.8,10.6 l 8.3,8.3 c 3.7,2.1 8.5,0.9 10.6,-2.8 z"
   id="path224" />			<linearGradient
   id="SVGID_00000105422525816191208810000011752138741370373521_"
   gradientUnits="userSpaceOnUse"
   x1="101.76"
   y1="129.81821"
   x2="141.093"
   y2="129.81821"
   gradientTransform="matrix(1,0,0,-1,0,232)">		<stop
   offset="0"
   style="stop-color:#F6B100"
   id="stop226" />		<stop
   offset="1"
   style="stop-color:#FDCC00"
   id="stop228" />	</linearGradient>	<path
   style="fill:url(#SVGID_00000105422525816191208810000011752138741370373521_)"
   d="m 109.5,91.1 c -4.3,0 -7.8,3.5 -7.8,7.8 l 0.1,9.6 c 0,4.3 3.1,6 6.8,3.9 l 30,-17.3 c 3.7,-2.1 3.2,-3.9 -1,-3.9 z"
   id="path231" /></g><rect
     style="fill:#000000;fill-opacity:0"
     id="rect710"
     width="138.25165"
     height="123.57526"
     x="-9.3528395"
     y="-3.261934" /><rect
     style="fill:#000000;fill-opacity:0"
     id="rect1545"
     width="135.31638"
     height="125.33643"
     x="-19.332788"
     y="-6.7842689" /><rect
     style="fill:#000000;fill-opacity:0"
     id="rect1547"
     width="5.8705583"
     height="0.88058376"
     x="116.86417"
     y="10.240351" /><rect
     style="fill:#000000;fill-opacity:0"
     id="rect1549"
     width="127.09759"
     height="138.83871"
     x="-7.0046182"
     y="-17.057747" /><rect
     style="fill:#000000;fill-opacity:0"
     id="rect1574"
     width="139.13223"
     height="127.97817"
     x="-10.820483"
     y="-7.9583793" /></svg>
